<?xml version="1.0" standalone="no"?><!DOCTYPE svg PUBLIC "-//W3C//DTD SVG 1.1//EN" "http://www.w3.org/Graphics/SVG/1.1/DTD/svg11.dtd"><svg t="1630755641273" class="icon" viewBox="0 0 1024 1024" version="1.1" xmlns="http://www.w3.org/2000/svg" p-id="5189" data-darkreader-inline-fill="" xmlns:xlink="http://www.w3.org/1999/xlink" width="200" height="200"><defs><style type="text/css"></style></defs><path d="M594.005333 597.333333c-46.250667 0-83.712-38.186667-83.712-85.333333s37.461333-85.333333 83.712-85.333333 83.754667 38.186667 83.754667 85.333333-37.504 85.333333-83.754667 85.333333m-251.178666 0c-46.208 0-83.712-38.186667-83.712-85.333333s37.504-85.333333 83.712-85.333333c46.250667 0 83.754667 38.186667 83.754666 85.333333s-37.504 85.333333-83.754666 85.333333m543.018666 233.130667A195.328 195.328 0 0 1 838.826667 704v-208.469333c0-2.944-0.64-5.546667-1.237334-8.192C825.088 286.805333 661.973333 128 462.08 128 253.994667 128 85.333333 299.946667 85.333333 512c0 203.776 155.818667 370.005333 352.554667 382.72 2.602667 0.597333 5.162667 1.28 8.021333 1.28h412.757334c33.493333 0 49.109333-39.765333 27.178666-65.536" fill="#eaeaea" p-id="5190" style="--darkreader-inline-fill: #242728;" data-darkreader-inline-fill=""></path></svg>